# xmcd
#
# Track frame offsets: 
#        150
#        13732
#        26976
#        38789
#        51892
#        65011
#        78400
#        91019
#        101258
#        112226
#        124566
#        136309
#        148056
#        159951
#        171265
#        182889
#        196562
#        208254
#        223257
#        235981
#        248458
#        262727
#        274308
#        286116
#        299933
#
# Disc length: 4199 seconds
#
# Revision: 0
# Processed by: cddbd v1.5.1PL0 Copyright (c) Steve Scherf et al.
# Submitted via: ExactAudioCopy v0.95a5
#
DISCID=77106519
DTITLE=Various Artist - Maverick Country CD 1- Puttin' On The Style
DYEAR=2004
DGENRE=Country
TTITLE0=Vernon Dalhart - Puttin' on the style
TTITLE1=Uncle Dave Macon - Sail away ladies
TTITLE2=Harry McClintock - Hallelujah I'm a bum
TTITLE3=Goebel Reeves - The tramp's mother
TTITLE4=Jimmie Rodgers and Sara Carter - The wonderful city
TTITLE5=Bradley Kincaid - Ain't we crazy
TTITLE6=Tex Morton - The yodelling bagman
TTITLE7=Roy Acuff - Will the circle be unbroken
TTITLE8=Riley Pucket - Peach picking time in Georgia
TTITLE9=Gene Autry - Have I told you lately that I love you
TTITLE10=Slim Dusty - When the rain tumbles down in July
TTITLE11=Buddy Starcher - The song of the water wheel
TTITLE12=Tex Williams - Smoke! Smoke! Smoke! That cigarette
TTITLE13=Eddy Arnold - Bouquet of roses
TTITLE14=Elton Britt - Chime bells
TTITLE15=Bill Carlisle - Tramp on the street
TTITLE16=Cowboy Copas - Signed sealed and delivered
TTITLE17=T. Texas Tyler - Deck of cards
TTITLE18=George Morgan - Candy kisses
TTITLE19=Hank Williams - I'm so lonesome I could cry
TTITLE20=Bob Wills and His Texas Playboys - San Antonio rose
TTITLE21=Mac Wiseman - The little white church
TTITLE22=Marty Robbins - I'll go on alone
TTITLE23=Carl Perkins - Turn around
TTITLE24=Jerry Lee Lewis - You win again
EXTD=
EXTT0=
EXTT1=
EXTT2=
EXTT3=
EXTT4=
EXTT5=
EXTT6=
EXTT7=
EXTT8=
EXTT9=
EXTT10=
EXTT11=
EXTT12=
EXTT13=
EXTT14=
EXTT15=
EXTT16=
EXTT17=
EXTT18=
EXTT19=
EXTT20=
EXTT21=
EXTT22=
EXTT23=
EXTT24=
PLAYORDER=
